<?xml version="1.0" encoding="utf-8"?>
<!-- Generator: Adobe Illustrator 23.0.2, SVG Export Plug-In . SVG Version: 6.00 Build 0)  -->
<svg version="1.1" id="Capa_1" xmlns="http://www.w3.org/2000/svg" xmlns:xlink="http://www.w3.org/1999/xlink" x="0px" y="0px"
	 viewBox="0 0 31.2 31.2" style="enable-background:new 0 0 31.2 31.2;" xml:space="preserve">
<style type="text/css">
	.st0{fill:#FFFFFF;}
</style>
<g>
	<path class="st0" d="M25.9,19.2c-0.6-1.4-4.6-2.7-4.6-2.7c-2.1-0.7-2.1-1.5-2.1-1.5c-4.1,8.1-7.3,0-7.3,0c-0.3,1.1-4.5,2.4-4.5,2.4
		c-1.2,0.5-1.8,1.2-1.8,1.2c-1.8,2.7-2,8.8-2,8.8c0,1.4,0.6,1.5,0.6,1.5C8.4,30.9,15,31.2,15,31.2c6.8,0.1,11.7-1.9,11.7-1.9
		c0.7-0.5,0.7-0.8,0.7-0.8C28,24.1,25.9,19.2,25.9,19.2z M18.6,26.9h-2v2.1h-1.7v-2.1h-2v-1.8h2v-2h1.7v2h2L18.6,26.9L18.6,26.9z"/>
	<path class="st0" d="M10.9,10.8c0.3,2.6,2.6,5.3,4.6,5.3c2.3,0,4.6-2.8,4.9-5.3c0.1-0.1,0.3-0.3,0.4-0.8c0,0,0.5-1.8-0.2-1.6
		c0.2-0.7,1-3.4-0.5-5.1c0,0-0.7-0.9-2.4-1.5c-0.1-0.1-0.1-0.1-0.2-0.1c0,0,0,0,0.1,0.1c-0.1,0-0.2-0.1-0.3-0.1
		c-0.1-0.1-0.2-0.2-0.3-0.3c0,0,0.1,0.1,0.2,0.3c0,0-0.1,0-0.1,0c-0.1-0.1-0.2-0.2-0.3-0.4c0,0,0,0.1,0.1,0.2
		c-0.3-0.2-0.9-0.8-0.9-1.4c0,0-0.4,0.2-0.6,0.5C15.6,0.5,15.7,0.2,16,0c0,0-0.3,0.1-0.5,0.4c-0.2,0.1-0.6,0.4-0.7,0.9l-0.1-0.1
		c0.1-0.1,0.2-0.3,0.3-0.5c0,0-0.2,0.2-0.3,0.4l-0.3-0.1c0.1-0.2,0.2-0.3,0.3-0.5c0,0-0.1,0.1-0.3,0.3c0-0.2,0-0.4-0.5,0.2
		c0,0-2.5,1.1-3.2,3.3c0,0-0.4,1,0.1,3.9C9.9,8,10.5,9.9,10.5,9.9C10.5,10.5,10.8,10.7,10.9,10.8z M10.9,9.7
		C10.9,9.7,10.9,9.7,10.9,9.7C10.9,9.7,10.9,9.7,10.9,9.7z M15.4,0.5c-0.1,0.2-0.2,0.4-0.3,0.6l-0.1,0C15.1,0.9,15.2,0.7,15.4,0.5z"
		/>
</g>
</svg>
